<?xml version="1.0" standalone="no"?>
<!DOCTYPE svg PUBLIC "-//W3C//DTD SVG 20010904//EN"
 "http://www.w3.org/TR/2001/REC-SVG-20010904/DTD/svg10.dtd">
<svg version="1.0" xmlns="http://www.w3.org/2000/svg"
 width="50.000000pt" height="50.000000pt" viewBox="0 0 50.000000 50.000000"
 preserveAspectRatio="xMidYMid meet">
<metadata>
Created by potrace 1.15, written by Peter Selinger 2001-2017
</metadata>
<g transform="translate(0.000000,50.000000) scale(0.100000,-0.100000)"
fill="#000000" stroke="none">
<path d="M60 275 c0 -166 2 -185 17 -185 9 0 69 -16 134 -35 65 -19 129 -35
141 -35 22 0 27 14 72 164 26 90 46 172 44 182 -2 12 -23 24 -66 38 -46 15
-62 25 -62 38 0 16 -12 18 -140 18 l-140 0 0 -185z m260 0 l0 -165 -120 0
-120 0 0 165 0 165 120 0 120 0 0 -165z m73 99 c26 -9 47 -19 47 -22 -1 -14
-86 -292 -91 -297 -3 -2 -34 4 -70 14 l-64 19 63 1 62 1 0 150 c0 83 1 150 3
150 2 0 24 -7 50 -16z"/>
</g>
</svg>
